<svg version="1.0" xmlns="http://www.w3.org/2000/svg"
 width="180" height="180" viewBox="0 0 180 180"
 preserveAspectRatio="xMidYMid meet">

<g transform="translate(0.000000,180.000000) scale(0.100000,-0.100000)"
fill="#000000" stroke="none">
<path d="M707 1738 l-38 -10 6 -53 7 -52 -46 -26 -47 -26 -19 32 c-11 18 -20
35 -20 40 0 17 -28 5 -58 -26 -36 -38 -38 -46 -16 -88 18 -35 13 -52 -26 -98
l-29 -34 -31 27 c-18 14 -35 24 -39 22 -4 -3 -18 -28 -31 -56 l-24 -50 33 -34
33 -34 -20 -59 c-11 -32 -23 -57 -28 -57 -5 1 -23 5 -41 9 -31 6 -32 6 -38
-42 -13 -87 -13 -87 25 -99 l35 -12 0 -67 0 -68 -35 -12 c-37 -13 -37 -13 -25
-97 l6 -47 42 5 43 6 18 -57 18 -57 -33 -34 -33 -34 29 -55 c16 -30 31 -55 34
-55 3 0 18 12 33 27 l29 28 34 -40 c37 -44 43 -71 20 -101 -23 -31 -18 -50 24
-83 21 -17 42 -31 45 -31 3 0 15 18 26 41 l21 40 42 -25 c41 -24 42 -26 42
-77 l0 -53 44 -13 c24 -7 47 -10 52 -8 4 3 11 26 15 50 l6 45 53 0 53 0 7 -51
c7 -50 7 -50 39 -43 73 16 75 18 69 76 -5 53 -5 53 31 70 20 10 36 23 36 29 0
9 -87 129 -93 129 -1 0 -20 -7 -42 -15 -60 -21 -154 -19 -222 7 -43 16 -75 38
-124 87 -109 109 -159 241 -159 421 0 263 145 477 351 519 194 40 390 -132
445 -389 15 -71 15 -203 -2 -295 -4 -25 4 -41 45 -93 l49 -63 17 50 c9 28 20
53 24 56 5 2 22 0 39 -5 18 -4 34 -5 36 -1 3 3 8 34 11 68 l7 62 -28 7 c-16 4
-34 10 -39 15 -8 6 -10 56 -5 131 0 4 16 10 35 14 39 7 40 13 29 99 l-7 47
-42 -7 -43 -6 -16 47 c-22 65 -20 77 14 108 l30 26 -26 53 c-15 28 -28 54 -30
56 -2 2 -19 -8 -38 -23 l-35 -26 -35 46 -35 46 22 45 22 45 -40 34 c-22 18
-43 34 -47 34 -3 0 -15 -16 -27 -35 -11 -19 -25 -35 -31 -35 -6 0 -28 11 -49
24 -37 24 -38 25 -33 74 l4 50 -38 11 c-58 16 -63 14 -69 -26 -11 -62 -11 -63
-64 -63 l-49 0 -8 47 c-10 53 -18 57 -77 41z"/>
<path d="M770 1401 c-127 -41 -225 -156 -264 -308 -20 -75 -20 -220 -2 -290
36 -134 115 -241 214 -290 47 -23 70 -28 129 -28 91 1 105 12 71 57 -23 31
-31 34 -79 34 -123 2 -227 101 -269 256 -8 29 -11 83 -8 142 3 84 8 102 41
169 75 152 206 213 332 153 120 -57 195 -191 195 -350 0 -49 5 -65 27 -95 l27
-35 7 24 c12 45 9 174 -6 238 -45 191 -173 321 -324 328 -36 2 -77 0 -91 -5z"/>
<path d="M803 1204 c-7 -3 10 -35 48 -86 32 -44 59 -88 59 -98 0 -23 -59 -108
-93 -134 l-27 -20 -23 22 c-13 13 -42 47 -63 77 -21 30 -42 55 -46 55 -14 0
-8 -136 8 -182 33 -97 123 -164 211 -156 l40 3 128 -164 127 -164 1 -91 c2
-80 6 -97 32 -146 41 -74 98 -114 165 -114 27 0 52 3 56 7 3 3 -19 38 -50 78
-71 92 -73 117 -13 191 61 76 74 74 144 -16 l58 -76 8 38 c19 87 -29 215 -100
269 -30 23 -47 28 -101 30 l-66 1 -128 166 -128 165 0 84 c0 74 -4 91 -31 146
-39 77 -99 121 -163 120 -23 0 -46 -3 -53 -5z"/>
</g>
</svg>
